<?xml version="1.0" standalone="no"?><!DOCTYPE svg PUBLIC "-//W3C//DTD SVG 1.1//EN" "http://www.w3.org/Graphics/SVG/1.1/DTD/svg11.dtd"><svg t="1759377909511" class="icon" viewBox="0 0 1024 1024" version="1.1" xmlns="http://www.w3.org/2000/svg" p-id="6115" xmlns:xlink="http://www.w3.org/1999/xlink" width="200" height="200"><path d="M869.26 715.34H662.42c-67.39 0-122.22-54.83-122.22-122.22S595.03 470.9 662.42 470.9h206.83c15.58 0 28.2 12.62 28.2 28.2s-12.62 28.2-28.2 28.2H662.42c-36.28 0-65.81 29.53-65.81 65.81s29.53 65.81 65.81 65.81h206.83c15.58 0 28.2 12.62 28.2 28.2 0.01 15.6-12.61 28.22-28.19 28.22zM814 324.61c-11.52 0-22.34-7.12-26.51-18.56l-44.69-122.8c-1.16-3.19-3.54-4.69-4.86-5.31-1.32-0.62-4.01-1.51-7.19-0.31L332.77 322.49c-14.64 5.3-30.83-2.22-36.16-16.86-5.33-14.64 2.22-30.82 16.86-36.16l397.98-144.86c16.53-6 34.41-5.21 50.32 2.19 15.93 7.43 28.02 20.62 34.03 37.14l44.69 122.8c5.33 14.64-2.22 30.82-16.86 36.16a28.001 28.001 0 0 1-9.63 1.71z" p-id="6116" fill="#cdcdcd"></path><path d="M850.45 903.37h-676.9c-36.28 0-65.81-29.53-65.81-65.81V348.69c0-36.28 29.53-65.81 65.81-65.81h676.91c36.28 0 65.81 29.53 65.81 65.81v488.88c-0.01 36.28-29.53 65.8-65.82 65.8z m-676.9-564.09c-5.19 0-9.4 4.21-9.4 9.4v488.88c0 5.19 4.21 9.4 9.4 9.4h676.91c5.19 0 9.4-4.21 9.4-9.4V348.69c0-5.19-4.21-9.4-9.4-9.4H173.55z" p-id="6117" fill="#cdcdcd"></path></svg>